<svg width="74" height="69" viewBox="0 0 74 69" fill="none" xmlns="http://www.w3.org/2000/svg">
<path d="M37 5.86499C20.0417 5.86499 6.16666 18.7737 6.16666 34.6725C6.16666 49.0475 17.4517 60.9787 32.19 63.135V43.01H24.3583V34.6725H32.19V28.3187C32.19 21.1025 36.7842 17.135 43.845 17.135C47.2058 17.135 50.7208 17.6812 50.7208 17.6812V24.7825H46.8358C43.0125 24.7825 41.81 26.9962 41.81 29.2675V34.6725H50.3817L48.9942 43.01H41.81V63.135C49.0757 62.065 55.6918 58.6083 60.4639 53.3889C65.2361 48.1695 67.8498 41.5312 67.8333 34.6725C67.8333 18.7737 53.9583 5.86499 37 5.86499Z" fill="#F8F8F8"/>
</svg>
