<svg width="62" height="60" viewBox="0 0 62 60" fill="none" xmlns="http://www.w3.org/2000/svg">
<path d="M17.98 0H44.02C53.94 0 62 7.8 62 17.4V42.6C62 47.2148 60.1057 51.6405 56.7338 54.9037C53.3619 58.1668 48.7886 60 44.02 60H17.98C8.06 60 0 52.2 0 42.6V17.4C0 12.7852 1.89432 8.35948 5.26622 5.09634C8.63812 1.83321 13.2114 0 17.98 0ZM17.36 6C14.4002 6 11.5616 7.13785 9.46869 9.16325C7.37578 11.1886 6.2 13.9357 6.2 16.8V43.2C6.2 49.17 11.191 54 17.36 54H44.64C47.5998 54 50.4384 52.8621 52.5313 50.8368C54.6242 48.8114 55.8 46.0643 55.8 43.2V16.8C55.8 10.83 50.809 6 44.64 6H17.36ZM47.275 10.5C48.3027 10.5 49.2883 10.8951 50.015 11.5983C50.7417 12.3016 51.15 13.2554 51.15 14.25C51.15 15.2446 50.7417 16.1984 50.015 16.9017C49.2883 17.6049 48.3027 18 47.275 18C46.2473 18 45.2617 17.6049 44.535 16.9017C43.8083 16.1984 43.4 15.2446 43.4 14.25C43.4 13.2554 43.8083 12.3016 44.535 11.5983C45.2617 10.8951 46.2473 10.5 47.275 10.5ZM31 15C35.1109 15 39.0533 16.5804 41.9602 19.3934C44.867 22.2064 46.5 26.0218 46.5 30C46.5 33.9782 44.867 37.7936 41.9602 40.6066C39.0533 43.4196 35.1109 45 31 45C26.8891 45 22.9467 43.4196 20.0398 40.6066C17.133 37.7936 15.5 33.9782 15.5 30C15.5 26.0218 17.133 22.2064 20.0398 19.3934C22.9467 16.5804 26.8891 15 31 15ZM31 21C28.5335 21 26.168 21.9482 24.4239 23.636C22.6798 25.3239 21.7 27.6131 21.7 30C21.7 32.3869 22.6798 34.6761 24.4239 36.364C26.168 38.0518 28.5335 39 31 39C33.4665 39 35.832 38.0518 37.5761 36.364C39.3202 34.6761 40.3 32.3869 40.3 30C40.3 27.6131 39.3202 25.3239 37.5761 23.636C35.832 21.9482 33.4665 21 31 21Z" fill="#F8F8F8"/>
</svg>
