<svg width="62" height="56" viewBox="0 0 62 56" fill="none" xmlns="http://www.w3.org/2000/svg">
<path d="M55.1111 0C56.9382 0 58.6904 0.655553 59.9823 1.82245C61.2742 2.98934 62 4.57199 62 6.22222V49.7778C62 51.428 61.2742 53.0107 59.9823 54.1776C58.6904 55.3444 56.9382 56 55.1111 56H6.88889C5.06184 56 3.30963 55.3444 2.01771 54.1776C0.725791 53.0107 0 51.428 0 49.7778V6.22222C0 4.57199 0.725791 2.98934 2.01771 1.82245C3.30963 0.655553 5.06184 0 6.88889 0H55.1111ZM53.3889 48.2222V31.7333C53.3889 29.0434 52.2058 26.4637 50.1 24.5617C47.9942 22.6597 45.1381 21.5911 42.16 21.5911C39.2322 21.5911 35.8222 23.2089 34.1689 25.6356V22.1822H24.5589V48.2222H34.1689V32.8844C34.1689 30.4889 36.3044 28.5289 38.9567 28.5289C40.2356 28.5289 41.4622 28.9878 42.3665 29.8046C43.2708 30.6214 43.7789 31.7293 43.7789 32.8844V48.2222H53.3889ZM13.3644 17.2978C14.8992 17.2978 16.371 16.7471 17.4562 15.7669C18.5414 14.7867 19.1511 13.4573 19.1511 12.0711C19.1511 9.17778 16.5678 6.81333 13.3644 6.81333C11.8206 6.81333 10.34 7.36728 9.2483 8.3533C8.15663 9.33933 7.54333 10.6767 7.54333 12.0711C7.54333 14.9644 10.1611 17.2978 13.3644 17.2978ZM18.1522 48.2222V22.1822H8.61111V48.2222H18.1522Z" fill="#F8F8F8"/>
</svg>
